<mxfile host="65bd71144e">
    <diagram id="6-WQOCMPAwIWoDzZwsL4" name="Page-1">
        <mxGraphModel dx="1204" dy="537" grid="1" gridSize="10" guides="1" tooltips="1" connect="1" arrows="1" fold="1" page="1" pageScale="1" pageWidth="850" pageHeight="1100" math="0" shadow="0">
            <root>
                <mxCell id="0"/>
                <mxCell id="1" parent="0"/>
                <mxCell id="2" value="" style="rounded=0;whiteSpace=wrap;html=1;align=center;" vertex="1" parent="1">
                    <mxGeometry y="40" width="850" height="160" as="geometry"/>
                </mxCell>
                <mxCell id="3" value="" style="edgeStyle=none;html=1;" edge="1" parent="1" target="2">
                    <mxGeometry relative="1" as="geometry">
                        <mxPoint x="283.33333333333326" y="29.999999999999886" as="sourcePoint"/>
                    </mxGeometry>
                </mxCell>
                <mxCell id="4" value="&lt;font style=&quot;font-size: 17px&quot;&gt;Ứng dụng quản lí nhân sự&lt;/font&gt;" style="text;html=1;strokeColor=none;fillColor=none;align=center;verticalAlign=middle;whiteSpace=wrap;rounded=0;strokeWidth=7;" vertex="1" parent="1">
                    <mxGeometry x="270" y="105" width="310" height="30" as="geometry"/>
                </mxCell>
                <mxCell id="5" style="edgeStyle=none;html=1;exitX=0.5;exitY=1;exitDx=0;exitDy=0;fontSize=17;" edge="1" parent="1" source="6" target="2">
                    <mxGeometry relative="1" as="geometry"/>
                </mxCell>
                <mxCell id="6" value="" style="rounded=0;whiteSpace=wrap;html=1;fontSize=17;strokeWidth=1;" vertex="1" parent="1">
                    <mxGeometry width="850" height="40" as="geometry"/>
                </mxCell>
                <mxCell id="7" value="Logo" style="rounded=0;whiteSpace=wrap;html=1;fontSize=17;strokeWidth=1;" vertex="1" parent="1">
                    <mxGeometry x="185" y="5" width="120" height="30" as="geometry"/>
                </mxCell>
                <mxCell id="8" value="Nhân viên" style="rounded=0;whiteSpace=wrap;html=1;fontSize=17;strokeWidth=1;" vertex="1" parent="1">
                    <mxGeometry x="305" y="5" width="120" height="30" as="geometry"/>
                </mxCell>
                <mxCell id="9" value="Phòng ban" style="rounded=0;whiteSpace=wrap;html=1;fontSize=17;strokeWidth=1;" vertex="1" parent="1">
                    <mxGeometry x="425" y="5" width="120" height="30" as="geometry"/>
                </mxCell>
                <mxCell id="10" value="Bảng lương" style="rounded=0;whiteSpace=wrap;html=1;fontSize=17;strokeWidth=1;fillColor=#76608a;fontColor=#ffffff;strokeColor=#432D57;" vertex="1" parent="1">
                    <mxGeometry x="545" y="5" width="120" height="30" as="geometry"/>
                </mxCell>
                <mxCell id="11" value="" style="rounded=0;whiteSpace=wrap;html=1;fontSize=17;strokeWidth=1;" vertex="1" parent="1">
                    <mxGeometry x="2" y="600" width="848" height="120" as="geometry"/>
                </mxCell>
                <mxCell id="12" value="Link" style="shape=rectangle;strokeColor=none;fillColor=none;linkText=;fontSize=17;fontColor=#0000ff;fontStyle=4;html=1;align=center;" vertex="1" parent="1">
                    <mxGeometry x="130" y="610" width="150" height="30" as="geometry"/>
                </mxCell>
                <mxCell id="13" value="&lt;u&gt;-Nhân viên&lt;br&gt;-Phòng ban&lt;br&gt;-Bảng lương&lt;/u&gt;" style="strokeWidth=1;shadow=0;dashed=0;align=center;html=1;shape=mxgraph.mockup.text.bulletedList;textColor=#666666;mainText=,,,,;textSize=17;bulletStyle=none;strokeColor=none;fillColor=none;align=left;verticalAlign=top;fontSize=17;fontColor=#666666;" vertex="1" parent="1">
                    <mxGeometry x="155" y="640" width="150" height="60" as="geometry"/>
                </mxCell>
                <mxCell id="14" value="&lt;b&gt;Address&lt;/b&gt;" style="text;html=1;strokeColor=none;fillColor=none;align=center;verticalAlign=middle;whiteSpace=wrap;rounded=0;fontSize=17;" vertex="1" parent="1">
                    <mxGeometry x="380" y="620" width="60" height="30" as="geometry"/>
                </mxCell>
                <mxCell id="15" value="Social Network&amp;nbsp;" style="strokeWidth=1;shadow=0;dashed=0;align=center;html=1;shape=mxgraph.mockup.buttons.button;strokeColor=#432D57;mainText=;buttonStyle=round;fontSize=17;fontStyle=1;fillColor=#76608a;whiteSpace=wrap;fontColor=#ffffff;" vertex="1" parent="1">
                    <mxGeometry x="560" y="640" width="150" height="40" as="geometry"/>
                </mxCell>
                <mxCell id="16" value="Nhân viên" style="strokeWidth=1;shadow=0;dashed=0;align=center;html=1;shape=mxgraph.mockup.navigation.anchor;fontSize=17;fontColor=#666666;fontStyle=1;" vertex="1" parent="1">
                    <mxGeometry x="75" y="210" width="80" height="30" as="geometry"/>
                </mxCell>
                <mxCell id="17" value="&gt;" style="strokeWidth=1;shadow=0;dashed=0;align=center;html=1;shape=mxgraph.mockup.navigation.anchor;fontSize=24;fontColor=#aaaaaa;fontStyle=1;" vertex="1" parent="1">
                    <mxGeometry x="165" y="210" width="20" height="30" as="geometry"/>
                </mxCell>
                <mxCell id="18" value="Bảng lương" style="strokeWidth=1;shadow=0;dashed=0;align=center;html=1;shape=mxgraph.mockup.navigation.anchor;fontSize=17;fontColor=#008cff;fontStyle=1;" vertex="1" parent="1">
                    <mxGeometry x="210" y="210" width="60" height="30" as="geometry"/>
                </mxCell>
                <mxCell id="20" value="&lt;h1 style=&quot;font-size: 16px&quot;&gt;&lt;font color=&quot;#000000&quot; style=&quot;font-size: 16px&quot;&gt;Nhân viên 1&lt;/font&gt;&lt;/h1&gt;&lt;p style=&quot;font-size: 16px&quot;&gt;&lt;font color=&quot;#000000&quot; style=&quot;font-size: 16px&quot;&gt;Mã nhân viên: .....&lt;/font&gt;&lt;/p&gt;&lt;p style=&quot;font-size: 14px&quot;&gt;&lt;font color=&quot;#000000&quot; style=&quot;font-size: 14px&quot;&gt;Hệ số lương: ......&lt;/font&gt;&lt;/p&gt;&lt;p style=&quot;font-size: 14px&quot;&gt;&lt;font color=&quot;#000000&quot; style=&quot;font-size: 14px&quot;&gt;Số giờ làm thêm: ......&lt;/font&gt;&lt;/p&gt;&lt;p style=&quot;font-size: 14px&quot;&gt;&lt;font style=&quot;font-size: 14px&quot; color=&quot;#ff3333&quot;&gt;Lương: ....&lt;/font&gt;&lt;/p&gt;" style="text;html=1;strokeColor=#432D57;fillColor=none;spacing=5;spacingTop=-20;whiteSpace=wrap;overflow=hidden;rounded=0;fontColor=#ffffff;" vertex="1" parent="1">
                    <mxGeometry x="60" y="250" width="220" height="160" as="geometry"/>
                </mxCell>
                <mxCell id="23" value="&lt;h1 style=&quot;font-size: 16px&quot;&gt;&lt;font color=&quot;#000000&quot; style=&quot;font-size: 16px&quot;&gt;Nhân viên 2&lt;/font&gt;&lt;/h1&gt;&lt;p style=&quot;font-size: 16px&quot;&gt;&lt;font color=&quot;#000000&quot; style=&quot;font-size: 16px&quot;&gt;Mã nhân viên: .....&lt;/font&gt;&lt;/p&gt;&lt;p style=&quot;font-size: 14px&quot;&gt;&lt;font color=&quot;#000000&quot; style=&quot;font-size: 14px&quot;&gt;Hệ số lương: ......&lt;/font&gt;&lt;/p&gt;&lt;p style=&quot;font-size: 14px&quot;&gt;&lt;font color=&quot;#000000&quot; style=&quot;font-size: 14px&quot;&gt;Số giờ làm thêm: ......&lt;/font&gt;&lt;/p&gt;&lt;p style=&quot;font-size: 14px&quot;&gt;&lt;font style=&quot;font-size: 14px&quot; color=&quot;#ff3333&quot;&gt;Lương: ....&lt;/font&gt;&lt;/p&gt;" style="text;html=1;strokeColor=#432D57;fillColor=none;spacing=5;spacingTop=-20;whiteSpace=wrap;overflow=hidden;rounded=0;fontColor=#ffffff;" vertex="1" parent="1">
                    <mxGeometry x="315" y="250" width="220" height="160" as="geometry"/>
                </mxCell>
                <mxCell id="24" value="&lt;h1 style=&quot;font-size: 16px&quot;&gt;&lt;font color=&quot;#000000&quot; style=&quot;font-size: 16px&quot;&gt;Nhân viên 3&lt;/font&gt;&lt;/h1&gt;&lt;p style=&quot;font-size: 16px&quot;&gt;&lt;font color=&quot;#000000&quot; style=&quot;font-size: 16px&quot;&gt;Mã nhân viên: .....&lt;/font&gt;&lt;/p&gt;&lt;p style=&quot;font-size: 14px&quot;&gt;&lt;font color=&quot;#000000&quot; style=&quot;font-size: 14px&quot;&gt;Hệ số lương: ......&lt;/font&gt;&lt;/p&gt;&lt;p style=&quot;font-size: 14px&quot;&gt;&lt;font color=&quot;#000000&quot; style=&quot;font-size: 14px&quot;&gt;Số giờ làm thêm: ......&lt;/font&gt;&lt;/p&gt;&lt;p style=&quot;font-size: 14px&quot;&gt;&lt;font style=&quot;font-size: 14px&quot; color=&quot;#ff3333&quot;&gt;Lương: ....&lt;/font&gt;&lt;/p&gt;" style="text;html=1;strokeColor=#432D57;fillColor=none;spacing=5;spacingTop=-20;whiteSpace=wrap;overflow=hidden;rounded=0;fontColor=#ffffff;" vertex="1" parent="1">
                    <mxGeometry x="570" y="250" width="220" height="160" as="geometry"/>
                </mxCell>
                <mxCell id="26" value="&lt;h1 style=&quot;font-size: 16px&quot;&gt;&lt;font color=&quot;#000000&quot; style=&quot;font-size: 16px&quot;&gt;Nhân viên 4&lt;/font&gt;&lt;/h1&gt;&lt;p style=&quot;font-size: 16px&quot;&gt;&lt;font color=&quot;#000000&quot; style=&quot;font-size: 16px&quot;&gt;Mã nhân viên: .....&lt;/font&gt;&lt;/p&gt;&lt;p style=&quot;font-size: 14px&quot;&gt;&lt;font color=&quot;#000000&quot; style=&quot;font-size: 14px&quot;&gt;Hệ số lương: ......&lt;/font&gt;&lt;/p&gt;&lt;p style=&quot;font-size: 14px&quot;&gt;&lt;font color=&quot;#000000&quot; style=&quot;font-size: 14px&quot;&gt;Số giờ làm thêm: ......&lt;/font&gt;&lt;/p&gt;&lt;p style=&quot;font-size: 14px&quot;&gt;&lt;font style=&quot;font-size: 14px&quot; color=&quot;#ff3333&quot;&gt;Lương: ....&lt;/font&gt;&lt;/p&gt;" style="text;html=1;strokeColor=#432D57;fillColor=none;spacing=5;spacingTop=-20;whiteSpace=wrap;overflow=hidden;rounded=0;fontColor=#ffffff;" vertex="1" parent="1">
                    <mxGeometry x="60" y="420" width="220" height="160" as="geometry"/>
                </mxCell>
                <mxCell id="27" value="&lt;h1 style=&quot;font-size: 16px&quot;&gt;&lt;font color=&quot;#000000&quot; style=&quot;font-size: 16px&quot;&gt;Nhân viên 5&lt;/font&gt;&lt;/h1&gt;&lt;p style=&quot;font-size: 16px&quot;&gt;&lt;font color=&quot;#000000&quot; style=&quot;font-size: 16px&quot;&gt;Mã nhân viên: .....&lt;/font&gt;&lt;/p&gt;&lt;p style=&quot;font-size: 14px&quot;&gt;&lt;font color=&quot;#000000&quot; style=&quot;font-size: 14px&quot;&gt;Hệ số lương: ......&lt;/font&gt;&lt;/p&gt;&lt;p style=&quot;font-size: 14px&quot;&gt;&lt;font color=&quot;#000000&quot; style=&quot;font-size: 14px&quot;&gt;Số giờ làm thêm: ......&lt;/font&gt;&lt;/p&gt;&lt;p style=&quot;font-size: 14px&quot;&gt;&lt;font style=&quot;font-size: 14px&quot; color=&quot;#ff3333&quot;&gt;Lương: ....&lt;/font&gt;&lt;/p&gt;" style="text;html=1;strokeColor=#432D57;fillColor=none;spacing=5;spacingTop=-20;whiteSpace=wrap;overflow=hidden;rounded=0;fontColor=#ffffff;" vertex="1" parent="1">
                    <mxGeometry x="315" y="420" width="220" height="160" as="geometry"/>
                </mxCell>
                <mxCell id="28" value="&lt;h1 style=&quot;font-size: 16px&quot;&gt;&lt;font color=&quot;#000000&quot; style=&quot;font-size: 16px&quot;&gt;Nhân viên 6&lt;/font&gt;&lt;/h1&gt;&lt;p style=&quot;font-size: 16px&quot;&gt;&lt;font color=&quot;#000000&quot; style=&quot;font-size: 16px&quot;&gt;Mã nhân viên: .....&lt;/font&gt;&lt;/p&gt;&lt;p style=&quot;font-size: 14px&quot;&gt;&lt;font color=&quot;#000000&quot; style=&quot;font-size: 14px&quot;&gt;Hệ số lương: ......&lt;/font&gt;&lt;/p&gt;&lt;p style=&quot;font-size: 14px&quot;&gt;&lt;font color=&quot;#000000&quot; style=&quot;font-size: 14px&quot;&gt;Số giờ làm thêm: ......&lt;/font&gt;&lt;/p&gt;&lt;p style=&quot;font-size: 14px&quot;&gt;&lt;font style=&quot;font-size: 14px&quot; color=&quot;#ff3333&quot;&gt;Lương: ....&lt;/font&gt;&lt;/p&gt;" style="text;html=1;strokeColor=#432D57;fillColor=none;spacing=5;spacingTop=-20;whiteSpace=wrap;overflow=hidden;rounded=0;fontColor=#ffffff;" vertex="1" parent="1">
                    <mxGeometry x="570" y="420" width="220" height="160" as="geometry"/>
                </mxCell>
            </root>
        </mxGraphModel>
    </diagram>
</mxfile>